<?xml version="1.0" encoding="UTF-8" standalone="no"?>
<svg
   xmlns:dc="http://purl.org/dc/elements/1.1/"
   xmlns:cc="http://creativecommons.org/ns#"
   xmlns:rdf="http://www.w3.org/1999/02/22-rdf-syntax-ns#"
   xmlns:svg="http://www.w3.org/2000/svg"
   xmlns="http://www.w3.org/2000/svg"
   xmlns:sodipodi="http://sodipodi.sourceforge.net/DTD/sodipodi-0.dtd"
   xmlns:inkscape="http://www.inkscape.org/namespaces/inkscape"
   width="210mm"
   height="297mm"
   viewBox="0 0 210 297"
   version="1.1"
   id="svg8"
   inkscape:version="1.0.2 (1.0.2+r75+1)"
   sodipodi:docname="branch_happy_path_workflow.svg"
   inkscape:export-filename="/home/pablo/Downloads/featurebranch_happy_path.png"
   inkscape:export-xdpi="129.89301"
   inkscape:export-ydpi="129.89301">
  <defs
     id="defs2" />
  <sodipodi:namedview
     id="base"
     pagecolor="#ffffff"
     bordercolor="#666666"
     borderopacity="1.0"
     inkscape:pageopacity="0.0"
     inkscape:pageshadow="2"
     inkscape:zoom="1.5950595"
     inkscape:cx="366.32852"
     inkscape:cy="475.42053"
     inkscape:document-units="mm"
     inkscape:current-layer="layer1"
     inkscape:document-rotation="0"
     showgrid="false"
     inkscape:window-width="1920"
     inkscape:window-height="1052"
     inkscape:window-x="0"
     inkscape:window-y="0"
     inkscape:window-maximized="1" />
  <metadata
     id="metadata5">
    <rdf:RDF>
      <cc:Work
         rdf:about="">
        <dc:format>image/svg+xml</dc:format>
        <dc:type
           rdf:resource="http://purl.org/dc/dcmitype/StillImage" />
        <dc:title />
      </cc:Work>
    </rdf:RDF>
  </metadata>
  <g
     inkscape:label="Layer 1"
     inkscape:groupmode="layer"
     id="layer1">
    <path
       style="opacity:0.99;fill:#0000ff;fill-rule:evenodd;stroke:#0000ff;stroke-width:0.926042;stroke-linecap:round;stroke-linejoin:round;stroke-opacity:1;paint-order:stroke fill markers"
       id="path16-6-9"
       d="m 141.58686,111.08806 c 0.48515,-0.11043 0.9652,-0.24201 1.45233,-0.34388 0.37047,-0.0908 0.74831,-0.14294 1.12586,-0.19355 0.42723,-0.0533 0.84813,-0.13047 1.26062,-0.25421 0.36436,-0.11735 0.71036,-0.28231 1.05404,-0.44905 0.42667,-0.21814 0.82762,-0.48174 1.24054,-0.72412 0.63199,-0.3373 1.235,-0.72253 1.83743,-1.10899 0.59083,-0.38992 1.15114,-0.82377 1.70962,-1.2581 0.48765,-0.40079 0.99904,-0.77177 1.52453,-1.12112 0.49339,-0.31636 0.98611,-0.63363 1.47584,-0.95562 0.35593,-0.2336 0.71478,-0.46528 1.09846,-0.65096 0.25614,-0.11919 0.51901,-0.22631 0.78462,-0.3228 0.2253,-0.0796 0.4462,-0.16922 0.66523,-0.26482 0.27864,-0.13021 0.55223,-0.27 0.8344,-0.39259 0.36383,-0.15335 0.72342,-0.31635 1.08502,-0.47481 0.33353,-0.14369 0.66356,-0.29392 0.97204,-0.48631 0.14891,-0.092 0.27808,-0.20388 0.39041,-0.33714 0.0751,-0.0901 -0.0524,-0.1963 -0.12743,-0.10618 v 0 c -0.0995,0.12109 -0.2178,0.21915 -0.35086,0.30263 -0.30139,0.18855 -0.62484,0.3341 -0.95074,0.47507 -0.36145,0.15839 -0.72089,0.32133 -1.08456,0.47462 -0.28222,0.12271 -0.55612,0.26208 -0.83468,0.3927 -0.21581,0.0943 -0.43348,0.18259 -0.65557,0.26096 -0.27082,0.0988 -0.53911,0.20749 -0.80026,0.32942 -0.38986,0.18945 -0.75557,0.42346 -1.11721,0.66161 -0.48995,0.32217 -0.98295,0.63953 -1.47656,0.95609 -0.52883,0.35172 -1.04369,0.72491 -1.53452,1.12831 -0.55452,0.43125 -1.11079,0.86212 -1.69734,1.24942 -0.6006,0.38528 -1.20175,0.76934 -1.83185,1.10556 -0.40914,0.2402 -0.8065,0.50124 -1.22896,0.71793 -0.33572,0.1629 -0.67359,0.32436 -1.02937,0.43943 -0.40399,0.12158 -0.81645,0.19621 -1.23494,0.24866 -0.38154,0.0512 -0.76338,0.10393 -1.13779,0.1956 -0.4866,0.10189 -0.96628,0.23281 -1.45082,0.34358 -0.11502,0.023 -0.0826,0.18563 0.0325,0.16266 z" />
    <path
       style="opacity:0.99;fill:#0000ff;fill-rule:evenodd;stroke:#0000ff;stroke-width:0.926042;stroke-linecap:round;stroke-linejoin:round;stroke-opacity:1;paint-order:stroke fill markers"
       id="path1219"
       d="m 53.78893,111.80785 c 0.201517,-0.0288 0.400928,-0.07 0.602168,-0.10079 0.186462,-0.0323 0.364945,-0.0836 0.538773,-0.15764 0.153207,-0.0853 0.323903,-0.12247 0.489239,-0.17492 0.10597,-0.0336 0.21051,-0.0716 0.316047,-0.10655 0.321411,-0.12308 0.652939,-0.21124 0.987838,-0.28824 0.245409,-0.0447 0.491852,-0.0832 0.738185,-0.12277 0.205128,-0.0233 0.394319,-0.11325 0.58875,-0.17731 0.133218,-0.0347 0.270256,-0.0558 0.398593,-0.10808 0.06993,-0.0285 0.136361,-0.0695 0.201554,-0.10683 0.223983,-0.12496 0.446757,-0.25209 0.674981,-0.36968 0.27909,-0.14173 0.565089,-0.26959 0.839303,-0.42067 0.323861,-0.15183 0.605179,-0.37361 0.893006,-0.58227 0.276196,-0.23118 0.574355,-0.43316 0.858308,-0.65419 0.309335,-0.23867 0.637503,-0.45337 0.974768,-0.65037 0.251865,-0.11964 0.510765,-0.21976 0.760089,-0.34512 0.164992,-0.0622 0.319149,-0.14074 0.463675,-0.24181 0.19296,-0.13117 0.344651,-0.30537 0.499602,-0.47729 0.117089,-0.1249 0.20483,-0.26969 0.284348,-0.41999 0.01937,-0.0367 -0.03247,-0.0641 -0.05185,-0.0274 v 0 c -0.07713,0.1461 -0.162211,0.28682 -0.276061,0.40813 -0.151995,0.16864 -0.300344,0.33986 -0.489675,0.46851 -0.142152,0.0996 -0.294081,0.176 -0.456382,0.23745 -0.250418,0.12592 -0.51068,0.226 -0.763334,0.34689 -0.339444,0.19841 -0.669858,0.41439 -0.981204,0.65472 -0.283401,0.22065 -0.581086,0.42216 -0.856705,0.65299 -0.285872,0.20725 -0.565163,0.4277 -0.886894,0.57839 -0.273669,0.15093 -0.559337,0.27826 -0.837856,0.4199 -0.228986,0.11803 -0.45252,0.24558 -0.677283,0.37093 -0.05656,0.0325 -0.129445,0.077 -0.190677,0.10198 -0.128395,0.0524 -0.265515,0.0729 -0.398661,0.10811 -0.191461,0.0631 -0.377791,0.15197 -0.579702,0.17511 -0.247616,0.0398 -0.495359,0.0784 -0.742022,0.12351 -0.336674,0.0774 -0.669991,0.16605 -0.993129,0.28973 -0.104815,0.0347 -0.208616,0.0725 -0.313859,0.10588 -0.167598,0.0532 -0.340601,0.0911 -0.495999,0.17731 -0.16927,0.0723 -0.343019,0.12203 -0.524642,0.15362 -0.202036,0.0309 -0.402249,0.0722 -0.604563,0.10121 -0.04069,0.008 -0.02942,0.0655 0.01127,0.0576 z" />
    <path
       style="opacity:0.99;fill:#f01e20;fill-rule:evenodd;stroke:#f01e20;stroke-width:0.926042;stroke-linecap:round;stroke-linejoin:round;paint-order:stroke fill markers"
       id="path12"
       d="m 17.735147,134.79864 c 0.01019,-0.53375 0.0804,-1.06289 0.158748,-1.59012 0.09945,-0.49499 0.174888,-0.99295 0.214502,-1.49623 0.02728,-0.40945 0.0283,-0.82 0.02921,-1.23016 -1.15e-4,-0.4675 -0.0011,-0.93501 -0.0015,-1.40251 -4.23e-4,-0.53397 -5.03e-4,-1.06795 -5.56e-4,-1.60193 -2.7e-5,-0.49625 -1.6e-5,-0.9925 -1.1e-5,-1.48875 -0.01501,-0.54939 0.0232,-1.09696 0.07073,-1.64378 0.04463,-0.46808 0.06995,-0.93758 0.08316,-1.4075 0.0082,-0.36068 0.0074,-0.72147 0.0073,-1.08222 -3.44e-4,-0.3742 -6.61e-4,-0.74839 -8.46e-4,-1.12259 -0.01384,-0.34819 0.02394,-0.69437 0.04787,-1.04112 0.005,-0.31483 0.0424,-0.62527 0.100586,-0.93413 0.09279,-0.34001 0.116511,-0.69126 0.160307,-1.0392 0.07452,-0.37294 0.122264,-0.74935 0.149197,-1.12846 0.02617,-0.3204 0.0098,-0.6426 0.03299,-0.96289 0.03537,-0.3504 0.05073,-0.70217 0.06082,-1.05405 0.0082,-0.3408 0.0088,-0.68172 0.0092,-1.0226 0.03098,-0.3452 0.04327,-0.69189 0.07444,-1.037 0.03311,-0.30906 0.06046,-0.61867 0.0764,-0.92911 0.0086,-0.20286 0.0093,-0.40594 0.0096,-0.60895 -2.9e-5,-0.13719 -3.18e-4,-0.27439 -5.03e-4,-0.41158 -1.57e-4,-0.11729 -0.166034,-0.11707 -0.165877,2.2e-4 v 0 c 1.84e-4,0.13705 4.77e-4,0.2741 5.03e-4,0.41115 -2.52e-4,0.20025 -9.26e-4,0.40056 -0.0093,0.60067 -0.01579,0.30831 -0.0431,0.61579 -0.07595,0.92274 -0.03138,0.34999 -0.04465,0.70152 -0.07511,1.05167 -3.97e-4,0.33936 -9.26e-4,0.67875 -0.0091,1.01803 -0.01001,0.34955 -0.02531,0.69898 -0.06047,1.04704 -0.02242,0.3204 -0.0079,0.64244 -0.033,0.96293 -0.02662,0.37615 -0.0747,0.74944 -0.148319,1.11951 -0.04322,0.34462 -0.06672,0.69245 -0.158734,1.02918 -0.05936,0.31522 -0.09772,0.63214 -0.103059,0.95341 -0.02417,0.35057 -0.06212,0.7006 -0.04827,1.05262 1.73e-4,0.37418 4.76e-4,0.74837 8.47e-4,1.12256 9.9e-5,0.35917 8.99e-4,0.7184 -0.0072,1.07751 -0.01309,0.46668 -0.03826,0.93294 -0.0826,1.39779 -0.04794,0.5516 -0.08635,1.10397 -0.07136,1.65815 -5e-6,0.49626 -1.5e-5,0.99251 1.2e-5,1.48877 4.5e-5,0.53402 1.13e-4,1.06805 5.55e-4,1.60207 4.5e-4,0.46733 0.0014,0.93465 0.0015,1.40198 -8.99e-4,0.40595 -0.0018,0.81229 -0.0287,1.21754 -0.03917,0.49949 -0.114746,0.99356 -0.213212,1.48485 -0.07947,0.5353 -0.150543,1.07257 -0.160547,1.61449 0,0.11729 0.165877,0.11729 0.165877,0 z" />
    <path
       style="opacity:0.99;fill:#f01e20;fill-rule:evenodd;stroke:#f01e20;stroke-width:0.926042;stroke-linecap:round;stroke-linejoin:round;paint-order:stroke fill markers;fill-opacity:1"
       id="path14"
       d="m 52.44494,134.82146 c 0.141288,-0.47669 0.227404,-0.96532 0.315466,-1.45367 0.07262,-0.38296 0.14361,-0.76465 0.180541,-1.15294 0.02734,-0.33596 0.02934,-0.67321 0.03086,-1.01006 5.3e-4,-0.41629 -5.29e-4,-0.83258 -7.93e-4,-1.24888 -5.29e-4,-0.49229 -5.29e-4,-0.98458 -5.29e-4,-1.47688 -3.2e-5,-0.38123 -2.4e-5,-0.76247 -2.2e-5,-1.1437 0.02037,-0.47684 0.101833,-0.94876 0.190794,-1.41687 0.119983,-0.56165 0.24016,-1.12343 0.382625,-1.67989 0.153606,-0.52196 0.284993,-1.04911 0.371752,-1.58633 0.09768,-0.55695 0.137782,-1.12085 0.161515,-1.68504 0.01516,-0.44176 0.01622,-0.88383 0.01627,-1.32581 -2.64e-4,-0.30382 -0.0011,-0.60765 -0.0016,-0.91147 -0.0123,-0.2734 0.01035,-0.54431 0.03556,-0.8161 0.03217,-0.3807 0.03671,-0.763 0.04152,-1.14481 0.0035,-0.35637 0.0033,-0.71276 0.0032,-1.06914 0.02291,-0.33127 0.0514,-0.66181 0.06506,-0.99368 0.0013,-0.39828 0.02119,-0.79489 0.05087,-1.19191 0.02376,-0.31649 0.02688,-0.63336 0.06356,-0.9487 0.02723,-0.2068 0.03713,-0.41466 0.07687,-0.61952 0.01778,-0.0837 0.02964,-0.16827 0.04079,-0.25299 0.01524,-0.11629 -0.149222,-0.13786 -0.164468,-0.0216 v 0 c -0.01064,0.0814 -0.02204,0.16268 -0.03918,0.24303 -0.04038,0.20902 -0.05164,0.42086 -0.07879,0.6319 -0.03686,0.31761 -0.04069,0.63668 -0.06421,0.95547 -0.02983,0.39886 -0.04977,0.79735 -0.05119,1.19747 -0.01371,0.33416 -0.04308,0.66693 -0.0652,1.00054 1.05e-4,0.35567 2.64e-4,0.71135 -0.0032,1.06701 -0.0047,0.37738 -0.0092,0.75526 -0.04082,1.13156 -0.02569,0.27694 -0.04847,0.5531 -0.03627,0.83164 2.65e-4,0.30375 0.0011,0.60749 0.0016,0.91124 -5.6e-5,0.43966 -0.0011,0.87941 -0.01611,1.31887 -0.02342,0.55768 -0.06292,1.11508 -0.159549,1.6656 -0.08566,0.53233 -0.216768,1.05439 -0.368684,1.5716 -0.143275,0.55983 -0.264303,1.12499 -0.384892,1.69006 -0.09083,0.4783 -0.173842,0.96055 -0.193707,1.44783 -5e-6,0.38124 -1.3e-5,0.76248 1.9e-5,1.14372 5.5e-5,0.49234 1.24e-4,0.98468 5.29e-4,1.47702 2.64e-4,0.41599 0.0013,0.83198 7.94e-4,1.24797 -0.0016,0.33187 -0.0034,0.66414 -0.03013,0.99514 -0.03633,0.3837 -0.107087,0.76073 -0.178649,1.13917 -0.08706,0.4829 -0.171911,0.96611 -0.311693,1.43747 -0.03227,0.11276 0.127199,0.15841 0.159473,0.0456 z" />
    <path
       style="opacity:0.99;fill:#f01e20;fill-rule:evenodd;stroke:#f01e20;stroke-width:0.926042;stroke-linecap:round;stroke-linejoin:round;paint-order:stroke fill markers;fill-opacity:1"
       id="path14-3"
       d="m 92.638968,135.05992 c 0.141288,-0.47669 0.227404,-0.96532 0.315466,-1.45367 0.07262,-0.38295 0.14361,-0.76464 0.180541,-1.15294 0.02734,-0.33596 0.02934,-0.67321 0.03086,-1.01006 5.3e-4,-0.41629 -5.29e-4,-0.83258 -7.93e-4,-1.24888 -5.29e-4,-0.49229 -5.29e-4,-0.98458 -5.29e-4,-1.47688 -3.2e-5,-0.38123 -2.4e-5,-0.76247 -2.2e-5,-1.1437 0.02037,-0.47683 0.101833,-0.94876 0.190794,-1.41687 0.119983,-0.56165 0.24016,-1.12343 0.382625,-1.67989 0.153606,-0.52196 0.284993,-1.04911 0.371752,-1.58633 0.09768,-0.55695 0.137782,-1.12085 0.161515,-1.68504 0.01516,-0.44176 0.01622,-0.88383 0.01627,-1.32581 -2.64e-4,-0.30382 -0.0011,-0.60765 -0.0016,-0.91147 -0.0123,-0.2734 0.01035,-0.54431 0.03556,-0.8161 0.03217,-0.3807 0.03671,-0.763 0.04152,-1.14481 0.0035,-0.35637 0.0033,-0.71276 0.0032,-1.06914 0.02291,-0.33127 0.0514,-0.66181 0.06506,-0.99368 0.0013,-0.39828 0.02119,-0.79489 0.05087,-1.19191 0.02376,-0.31649 0.02688,-0.63336 0.06356,-0.9487 0.02723,-0.2068 0.03713,-0.41466 0.07687,-0.61952 0.01778,-0.0837 0.02964,-0.16827 0.04079,-0.25299 0.01524,-0.11629 -0.149222,-0.13786 -0.164468,-0.0216 v 0 c -0.01064,0.0814 -0.02204,0.16268 -0.03918,0.24303 -0.04038,0.20902 -0.05164,0.42086 -0.07879,0.6319 -0.03686,0.31761 -0.04069,0.63668 -0.06421,0.95547 -0.02983,0.39886 -0.04977,0.79735 -0.05119,1.19747 -0.01371,0.33416 -0.04308,0.66693 -0.0652,1.00054 1.05e-4,0.35567 2.64e-4,0.71135 -0.0032,1.06701 -0.0047,0.37738 -0.0092,0.75526 -0.04082,1.13156 -0.02569,0.27694 -0.04847,0.5531 -0.03627,0.83164 2.65e-4,0.30375 0.0011,0.60749 0.0016,0.91124 -5.6e-5,0.43966 -0.0011,0.87941 -0.01611,1.31887 -0.02342,0.55768 -0.06292,1.11508 -0.159549,1.6656 -0.08566,0.53233 -0.216768,1.05439 -0.368684,1.5716 -0.143275,0.55983 -0.264303,1.12499 -0.384892,1.69006 -0.09083,0.4783 -0.173842,0.96055 -0.193707,1.44783 -5e-6,0.38124 -1.3e-5,0.76248 1.9e-5,1.14372 5.5e-5,0.49234 1.24e-4,0.98468 5.29e-4,1.47702 2.64e-4,0.41599 0.0013,0.83198 7.94e-4,1.24797 -0.0016,0.33188 -0.0034,0.66414 -0.03013,0.99514 -0.03633,0.3837 -0.107087,0.76073 -0.178649,1.13917 -0.08706,0.4829 -0.171911,0.96611 -0.311693,1.43747 -0.03227,0.11276 0.127199,0.15841 0.159473,0.0456 z" />
    <path
       style="opacity:0.99;fill:#0000ff;fill-rule:evenodd;stroke:#0000ff;stroke-width:0.926042;stroke-linecap:round;stroke-linejoin:round;stroke-opacity:1;paint-order:stroke fill markers"
       id="path16-6"
       d="m 94.498809,111.90993 c 0.485148,-0.11043 0.965197,-0.24201 1.452324,-0.34388 0.37047,-0.0908 0.748313,-0.14294 1.125863,-0.19355 0.427234,-0.0533 0.848133,-0.13047 1.260621,-0.25421 0.36436,-0.11735 0.710364,-0.28231 1.054044,-0.44905 0.426662,-0.21814 0.827619,-0.48174 1.240539,-0.72412 0.63199,-0.3373 1.235,-0.72253 1.83743,-1.10899 0.59083,-0.38992 1.15114,-0.82377 1.70962,-1.2581 0.48765,-0.40079 0.99904,-0.77177 1.52453,-1.12112 0.49339,-0.31636 0.98611,-0.63363 1.47584,-0.95562 0.35593,-0.2336 0.71478,-0.46528 1.09846,-0.65096 0.25614,-0.11919 0.51901,-0.22631 0.78462,-0.3228 0.2253,-0.0796 0.4462,-0.16922 0.66523,-0.26482 0.27864,-0.13021 0.55223,-0.27 0.8344,-0.39259 0.36383,-0.15335 0.72342,-0.31635 1.08502,-0.47481 0.33353,-0.14369 0.66356,-0.29392 0.97204,-0.48631 0.14891,-0.092 0.27808,-0.20388 0.39041,-0.33714 0.0751,-0.0901 -0.0524,-0.1963 -0.12743,-0.10618 v 0 c -0.0995,0.12109 -0.2178,0.21915 -0.35086,0.30263 -0.30139,0.18855 -0.62484,0.3341 -0.95074,0.47507 -0.36145,0.15839 -0.72089,0.32133 -1.08456,0.47462 -0.28222,0.12271 -0.55612,0.26208 -0.83468,0.3927 -0.21581,0.0943 -0.43348,0.18259 -0.65557,0.26096 -0.27082,0.0988 -0.53911,0.20749 -0.80026,0.32942 -0.38986,0.18945 -0.75557,0.42346 -1.11721,0.66161 -0.48995,0.32217 -0.98295,0.63953 -1.47656,0.95609 -0.52883,0.35172 -1.04369,0.72491 -1.53452,1.12831 -0.55452,0.43125 -1.11079,0.86212 -1.69734,1.24942 -0.6006,0.38528 -1.20175,0.76934 -1.83185,1.10556 -0.40914,0.2402 -0.806502,0.50124 -1.228965,0.71793 -0.335722,0.1629 -0.673586,0.32436 -1.029369,0.43943 -0.403992,0.12158 -0.816451,0.19621 -1.234937,0.24866 -0.38154,0.0512 -0.763379,0.10393 -1.137791,0.1956 -0.486603,0.10189 -0.966277,0.23281 -1.450824,0.34358 -0.115022,0.023 -0.08255,0.18563 0.03248,0.16266 z" />
    <path
       style="opacity:0.99;fill:#ff0000;fill-rule:evenodd;stroke:#ff0000;stroke-width:0.926042;stroke-linecap:round;stroke-linejoin:round;stroke-opacity:1;paint-order:stroke fill markers"
       id="path885"
       d="m 94.632797,110.85258 c -0.05193,-0.44165 -0.06904,-0.88519 -0.150844,-1.32269 -0.0607,-0.2753 -0.09184,-0.55487 -0.107185,-0.83593 -0.01045,-0.25122 -0.0094,-0.50272 -0.0093,-0.7541 5.3e-4,-0.25621 7.94e-4,-0.51242 0.0011,-0.76864 2.01e-4,-0.27739 2.06e-4,-0.55479 2.17e-4,-0.83218 5e-6,-0.29965 0,-0.59929 -3e-6,-0.89893 -3e-6,-0.31303 -3e-6,-0.62605 -3e-6,-0.93907 -2e-6,-0.29119 -2e-6,-0.58237 -2e-6,-0.87355 0,-0.0825 0,-0.16504 0,-0.24756 0,-0.11729 -0.165875,-0.11729 -0.165875,0 v 0 c 0,0.009 0,0.24402 0,0.24756 0,0.29118 0,0.58236 0,0.87355 0,0.31302 0,0.62604 2e-6,0.93907 3e-6,0.29964 1.1e-5,0.59928 5e-6,0.89892 -1.3e-5,0.27735 -1.8e-5,0.5547 -2.16e-4,0.83205 -2.28e-4,0.25623 -5.3e-4,0.51246 -0.0011,0.76869 -1.37e-4,0.25443 -0.0011,0.50899 0.0096,0.76326 0.01585,0.28825 0.04769,0.57502 0.109773,0.85739 0.08137,0.43381 0.09687,0.87392 0.14918,1.31182 0.01389,0.11646 0.178607,0.0968 0.164706,-0.0197 z" />
    <circle
       id="path887"
       style="fill:#ff0000;stroke:#ff0000;stroke-width:0.264583"
       cx="162.83678"
       cy="130.87108"
       r="0.0051151733" />
    <path
       style="opacity:0.99;fill:#f01e20;fill-rule:evenodd;stroke:#f01e20;stroke-width:0.926042;stroke-linecap:round;stroke-linejoin:round;paint-order:stroke fill markers;fill-opacity:1"
       id="path14-3-5"
       d="m 139.1149,134.92559 c 0.14129,-0.47669 0.2274,-0.96532 0.31546,-1.45367 0.0726,-0.38295 0.14361,-0.76464 0.18055,-1.15294 0.0273,-0.33596 0.0293,-0.67321 0.0309,-1.01006 5.3e-4,-0.41629 -5.3e-4,-0.83258 -8e-4,-1.24888 -5.3e-4,-0.49229 -5.3e-4,-0.98458 -5.3e-4,-1.47688 -3e-5,-0.38123 -2e-5,-0.76247 -2e-5,-1.1437 0.0204,-0.47683 0.10183,-0.94876 0.1908,-1.41687 0.11998,-0.56165 0.24016,-1.12343 0.38262,-1.67989 0.15361,-0.52196 0.28499,-1.04911 0.37175,-1.58633 0.0977,-0.55695 0.13778,-1.12085 0.16152,-1.68504 0.0152,-0.44176 0.0162,-0.88383 0.0163,-1.32581 -2.7e-4,-0.30382 -0.001,-0.60765 -0.002,-0.91147 -0.0123,-0.2734 0.0104,-0.54431 0.0356,-0.8161 0.0322,-0.3807 0.0367,-0.763 0.0415,-1.14481 0.003,-0.35637 0.003,-0.71276 0.003,-1.06914 0.0229,-0.33127 0.0514,-0.66181 0.0651,-0.99368 10e-4,-0.39828 0.0212,-0.79489 0.0509,-1.19191 0.0238,-0.31649 0.0269,-0.63336 0.0636,-0.9487 0.0272,-0.2068 0.0371,-0.41466 0.0769,-0.61952 0.0178,-0.0837 0.0296,-0.16827 0.0408,-0.25299 0.0152,-0.11629 -0.14922,-0.13786 -0.16447,-0.0216 v 0 c -0.0106,0.0814 -0.022,0.16268 -0.0392,0.24303 -0.0404,0.20902 -0.0516,0.42086 -0.0788,0.6319 -0.0369,0.31761 -0.0407,0.63668 -0.0642,0.95547 -0.0298,0.39886 -0.0498,0.79735 -0.0512,1.19747 -0.0137,0.33416 -0.0431,0.66693 -0.0652,1.00054 1e-4,0.35567 2.6e-4,0.71135 -0.003,1.06701 -0.005,0.37738 -0.009,0.75526 -0.0408,1.13156 -0.0257,0.27694 -0.0485,0.5531 -0.0363,0.83164 2.6e-4,0.30375 0.001,0.60749 0.002,0.91124 -6e-5,0.43966 -0.001,0.87941 -0.0161,1.31887 -0.0234,0.55768 -0.0629,1.11508 -0.15955,1.6656 -0.0857,0.53233 -0.21677,1.05439 -0.36868,1.5716 -0.14328,0.55983 -0.26431,1.12499 -0.3849,1.69006 -0.0908,0.4783 -0.17384,0.96055 -0.1937,1.44783 -1e-5,0.38124 -2e-5,0.76248 2e-5,1.14372 5e-5,0.49234 1.2e-4,0.98468 5.3e-4,1.47702 2.6e-4,0.41599 0.001,0.83198 7.9e-4,1.24797 -0.002,0.33188 -0.003,0.66414 -0.0301,0.99514 -0.0363,0.3837 -0.10709,0.76073 -0.17865,1.13917 -0.0871,0.4829 -0.17191,0.96611 -0.31169,1.43747 -0.0323,0.11276 0.1272,0.15841 0.15947,0.0456 z" />
    <path
       style="opacity:0.99;fill:#0000ff;fill-rule:evenodd;stroke:#0000ff;stroke-width:0.926042;stroke-linecap:round;stroke-linejoin:round;stroke-opacity:1;paint-order:stroke fill markers"
       id="path16-6-3"
       d="m 141.11006,102.58052 c 0.12756,-0.48094 0.234,-0.96717 0.37006,-1.44587 0.0917,-0.37023 0.22102,-0.72909 0.35156,-1.08694 0.15128,-0.403087 0.27842,-0.811694 0.36042,-1.234451 0.0653,-0.37718 0.08,-0.760207 0.0919,-1.142014 0.005,-0.479157 -0.0422,-0.956674 -0.065,-1.434931 -0.005,-0.716337 -0.0662,-1.429294 -0.12862,-2.142288 -0.0709,-0.704347 -0.19481,-1.402064 -0.32003,-2.098368 -0.12842,-0.618007 -0.21941,-1.243204 -0.28471,-1.870831 -0.051,-0.583877 -0.10308,-1.167584 -0.16075,-1.750841 -0.0415,-0.423707 -0.08,-0.849104 -0.0662,-1.275131 0.0134,-0.2822 0.0407,-0.564737 0.0786,-0.844777 0.0342,-0.236487 0.0574,-0.473737 0.0745,-0.712104 0.0141,-0.30725 0.0174,-0.614464 0.0399,-0.921285 0.0332,-0.39343 0.0559,-0.787582 0.0835,-1.181423 0.0277,-0.362097 0.0479,-0.724149 0.0208,-1.086703 -0.0123,-0.174601 -0.0514,-0.340956 -0.11722,-0.502324 -0.0449,-0.108404 -0.19816,-0.04481 -0.15324,0.0635 v 0 c 0.061,0.144322 0.0929,0.29468 0.10503,0.451286 0.027,0.354484 0.006,0.708525 -0.0209,1.062621 -0.0276,0.393658 -0.0503,0.787652 -0.0835,1.180914 -0.0224,0.306929 -0.0262,0.614233 -0.0399,0.921583 -0.0167,0.234918 -0.0396,0.468698 -0.0734,0.701768 -0.0383,0.285727 -0.0667,0.573794 -0.08,0.861694 -0.0133,0.433247 0.024,0.865804 0.067,1.296681 0.0577,0.583537 0.10978,1.167534 0.16084,1.751711 0.0658,0.631677 0.15717,1.260964 0.28642,1.883011 0.12433,0.691374 0.24752,1.384131 0.31805,2.083458 0.0622,0.710834 0.12311,1.421591 0.12818,2.135758 0.0227,0.473897 0.0693,0.947034 0.0649,1.421801 -0.0117,0.372977 -0.0256,0.747174 -0.089,1.115684 -0.08,0.414257 -0.20548,0.814164 -0.35341,1.209134 -0.13187,0.361687 -0.26255,0.724307 -0.35529,1.098457 -0.13579,0.47825 -0.24265,0.96385 -0.36963,1.44441 -0.033,0.11256 0.12608,0.15927 0.15914,0.0468 z" />
    <path
       style="opacity:0.99;fill:#ff0000;fill-rule:evenodd;stroke:#ff0000;stroke-width:0.926042;stroke-linecap:round;stroke-linejoin:round;stroke-opacity:1;paint-order:stroke fill markers"
       id="path885-5"
       d="m 141.10873,110.71825 c -0.0519,-0.44165 -0.069,-0.88519 -0.15085,-1.32269 -0.0607,-0.2753 -0.0918,-0.55487 -0.10718,-0.83593 -0.0105,-0.25122 -0.009,-0.50272 -0.009,-0.7541 5.3e-4,-0.25621 7.9e-4,-0.51242 0.001,-0.76864 2e-4,-0.27739 2e-4,-0.55479 2.1e-4,-0.83218 1e-5,-0.29965 0,-0.59929 0,-0.89893 0,-0.31303 0,-0.62605 0,-0.93907 0,-0.29119 0,-0.58237 0,-0.87355 0,-0.0825 0,-0.16504 0,-0.24756 0,-0.11729 -0.16588,-0.11729 -0.16588,0 v 0 c 0,0.009 0,0.24402 0,0.24756 0,0.29118 0,0.58236 0,0.87355 0,0.31302 0,0.62604 0,0.93907 1e-5,0.29964 1e-5,0.59928 1e-5,0.89892 -1e-5,0.27735 -2e-5,0.5547 -2.2e-4,0.83205 -2.3e-4,0.25623 -5.3e-4,0.51246 -0.001,0.76869 -1.3e-4,0.25443 -10e-4,0.50899 0.01,0.76326 0.0159,0.28825 0.0477,0.57502 0.10978,0.85739 0.0814,0.43381 0.0969,0.87392 0.14918,1.31182 0.0139,0.11646 0.1786,0.0968 0.1647,-0.0197 z" />
    <ellipse
       style="opacity:0.99;fill:#ff0000;fill-rule:evenodd;stroke:#ff0000;stroke-width:0.926042;stroke-linecap:round;stroke-linejoin:round;stroke-opacity:1;paint-order:stroke fill markers"
       id="path917"
       cx="54.33065"
       cy="111.43824"
       rx="0.84549415"
       ry="0.83000648" />
    <ellipse
       style="opacity:0.99;fill:#ff0000;fill-rule:evenodd;stroke:#ff0000;stroke-width:0.926042;stroke-linecap:round;stroke-linejoin:round;stroke-opacity:1;paint-order:stroke fill markers"
       id="path917-6"
       cx="140.84413"
       cy="102.87563"
       rx="0.84549415"
       ry="0.83000648" />
    <ellipse
       style="opacity:0.99;fill:#ff0000;fill-rule:evenodd;stroke:#ff0000;stroke-width:0.926042;stroke-linecap:round;stroke-linejoin:round;stroke-opacity:1;paint-order:stroke fill markers"
       id="path917-2"
       cx="141.01677"
       cy="111.02842"
       rx="0.84549415"
       ry="0.83000648" />
    <ellipse
       style="opacity:0.99;fill:#ff0000;fill-rule:evenodd;stroke:#ff0000;stroke-width:0.926042;stroke-linecap:round;stroke-linejoin:round;stroke-opacity:1;paint-order:stroke fill markers"
       id="path917-9"
       cx="94.406113"
       cy="111.72028"
       rx="0.84549415"
       ry="0.83000648" />
    <ellipse
       style="opacity:0.99;fill:#ff0000;fill-rule:evenodd;stroke:#ff0000;stroke-width:0.926042;stroke-linecap:round;stroke-linejoin:round;stroke-opacity:1;paint-order:stroke fill markers"
       id="path917-9-1-2"
       cx="140.64003"
       cy="106.83467"
       rx="0.84549415"
       ry="0.83000648"
       inkscape:transform-center-x="17.738564"
       inkscape:transform-center-y="1.2627603" />
    <ellipse
       style="opacity:0.99;fill:#0000ff;fill-rule:evenodd;stroke:#0000ff;stroke-width:0.926042;stroke-linecap:round;stroke-linejoin:round;stroke-opacity:1;paint-order:stroke fill markers"
       id="path917-9-1-2-7"
       cx="100.55829"
       cy="109.95518"
       rx="0.84549415"
       ry="0.83000648"
       inkscape:transform-center-x="17.738564"
       inkscape:transform-center-y="1.2627603" />
    <ellipse
       style="opacity:0.99;fill:#0000ff;fill-rule:evenodd;stroke:#0000ff;stroke-width:0.926042;stroke-linecap:round;stroke-linejoin:round;stroke-opacity:1;paint-order:stroke fill markers"
       id="path917-9-1-2-7-0"
       cx="105.60089"
       cy="106.64928"
       rx="0.84549415"
       ry="0.83000648"
       inkscape:transform-center-x="17.738564"
       inkscape:transform-center-y="1.2627603" />
    <ellipse
       style="opacity:0.99;fill:#0000ff;fill-rule:evenodd;stroke:#0000ff;stroke-width:0.926042;stroke-linecap:round;stroke-linejoin:round;stroke-opacity:1;paint-order:stroke fill markers"
       id="path917-9-1-2-7-0-9"
       cx="113.18217"
       cy="102.43967"
       rx="0.84549415"
       ry="0.83000648"
       inkscape:transform-center-x="17.738564"
       inkscape:transform-center-y="1.2627603" />
    <ellipse
       style="opacity:0.99;fill:#0000ff;fill-rule:evenodd;stroke:#0000ff;stroke-width:0.926042;stroke-linecap:round;stroke-linejoin:round;stroke-opacity:1;paint-order:stroke fill markers"
       id="path917-9-1-2-7-3"
       cx="59.651451"
       cy="109.88596"
       rx="0.84549415"
       ry="0.83000648"
       inkscape:transform-center-x="17.738564"
       inkscape:transform-center-y="1.2627603" />
    <ellipse
       style="opacity:0.99;fill:#0000ff;fill-rule:evenodd;stroke:#0000ff;stroke-width:0.926042;stroke-linecap:round;stroke-linejoin:round;stroke-opacity:1;paint-order:stroke fill markers"
       id="path917-9-1-2-7-0-6"
       cx="64.694077"
       cy="106.58009"
       rx="0.84549415"
       ry="0.83000648"
       inkscape:transform-center-x="17.738564"
       inkscape:transform-center-y="1.2627603" />
    <ellipse
       style="opacity:0.99;fill:#0000ff;fill-rule:evenodd;stroke:#0000ff;stroke-width:0.926042;stroke-linecap:round;stroke-linejoin:round;stroke-opacity:1;paint-order:stroke fill markers"
       id="path917-9-1-2-7-3-6"
       cx="142.33034"
       cy="97.055717"
       rx="0.84549415"
       ry="0.83000648"
       inkscape:transform-center-x="17.738564"
       inkscape:transform-center-y="1.2627603" />
    <ellipse
       style="opacity:0.99;fill:#0000ff;fill-rule:evenodd;stroke:#0000ff;stroke-width:0.926042;stroke-linecap:round;stroke-linejoin:round;stroke-opacity:1;paint-order:stroke fill markers"
       id="path917-9-1-2-7-0-6-2"
       cx="141.42868"
       cy="90.695686"
       rx="0.84549415"
       ry="0.83000648"
       inkscape:transform-center-x="17.738564"
       inkscape:transform-center-y="1.2627603" />
    <ellipse
       style="opacity:0.99;fill:#0000ff;fill-rule:evenodd;stroke:#0000ff;stroke-width:0.926042;stroke-linecap:round;stroke-linejoin:round;stroke-opacity:1;paint-order:stroke fill markers"
       id="path917-9-1-2-7-0-9-0-6"
       cx="141.4001"
       cy="82.229118"
       rx="0.84549415"
       ry="0.83000648"
       inkscape:transform-center-x="17.738564"
       inkscape:transform-center-y="1.2627603" />
    <ellipse
       style="opacity:0.99;fill:#ff0000;fill-rule:evenodd;stroke:#ff0000;stroke-width:0.926042;stroke-linecap:round;stroke-linejoin:round;stroke-opacity:1;paint-order:stroke fill markers"
       id="path917-9-1-2-1"
       cx="94.184654"
       cy="107.20543"
       rx="0.84549415"
       ry="0.83000648"
       inkscape:transform-center-x="17.738564"
       inkscape:transform-center-y="1.2627603" />
    <ellipse
       style="opacity:0.99;fill:#ff0000;fill-rule:evenodd;stroke:#ff0000;stroke-width:0.926042;stroke-linecap:round;stroke-linejoin:round;stroke-opacity:1;paint-order:stroke fill markers"
       id="path917-6-8"
       cx="94.30191"
       cy="102.86561"
       rx="0.84549415"
       ry="0.83000648" />
    <text
       xml:space="preserve"
       style="font-style:normal;font-weight:normal;font-size:4.9389px;line-height:1.25;font-family:sans-serif;letter-spacing:0px;word-spacing:0px;fill:#000000;fill-opacity:1;stroke:none;stroke-width:0.264583"
       x="16.706213"
       y="145.39328"
       id="text1173"
       inkscape:export-filename="/home/pablo/Downloads/text1173.png"
       inkscape:export-xdpi="129.89301"
       inkscape:export-ydpi="129.89301"><tspan
         sodipodi:role="line"
         id="tspan1171"
         x="16.706213"
         y="145.39328"
         style="stroke-width:0.264583">a</tspan></text>
    <text
       xml:space="preserve"
       style="font-style:normal;font-weight:normal;font-size:4.9389px;line-height:1.25;font-family:sans-serif;letter-spacing:0px;word-spacing:0px;fill:#000000;fill-opacity:1;stroke:none;stroke-width:0.264583"
       x="51.268429"
       y="145.39328"
       id="text1177"
       inkscape:export-filename="/home/pablo/Downloads/text1173.png"
       inkscape:export-xdpi="129.89301"
       inkscape:export-ydpi="129.89301"><tspan
         sodipodi:role="line"
         id="tspan1175"
         x="51.268429"
         y="145.39328"
         style="stroke-width:0.264583">b</tspan></text>
    <text
       xml:space="preserve"
       style="font-style:normal;font-weight:normal;font-size:4.9389px;line-height:1.25;font-family:sans-serif;letter-spacing:0px;word-spacing:0px;fill:#000000;fill-opacity:1;stroke:none;stroke-width:0.264583"
       x="92.14669"
       y="145.39328"
       id="text1181"
       inkscape:export-filename="/home/pablo/Downloads/text1173.png"
       inkscape:export-xdpi="129.89301"
       inkscape:export-ydpi="129.89301"><tspan
         sodipodi:role="line"
         id="tspan1179"
         x="92.14669"
         y="145.39328"
         style="stroke-width:0.264583">c</tspan></text>
    <text
       xml:space="preserve"
       style="font-style:normal;font-weight:normal;font-size:4.9389px;line-height:1.25;font-family:sans-serif;letter-spacing:0px;word-spacing:0px;fill:#000000;fill-opacity:1;stroke:none;stroke-width:0.264583"
       x="136.64279"
       y="145.39328"
       id="text1185"
       inkscape:export-filename="/home/pablo/Downloads/text1173.png"
       inkscape:export-xdpi="129.89301"
       inkscape:export-ydpi="129.89301"><tspan
         sodipodi:role="line"
         id="tspan1183"
         x="136.64279"
         y="145.39328"
         style="stroke-width:0.264583">d</tspan></text>
    <ellipse
       style="opacity:0.99;fill:#0000ff;fill-rule:evenodd;stroke:#0000ff;stroke-width:0.926042;stroke-linecap:round;stroke-linejoin:round;stroke-opacity:1;paint-order:stroke fill markers"
       id="path917-9-1-2-7-2"
       cx="147.64592"
       cy="109.13345"
       rx="0.84549415"
       ry="0.83000648"
       inkscape:transform-center-x="17.738564"
       inkscape:transform-center-y="1.2627603" />
    <ellipse
       style="opacity:0.99;fill:#0000ff;fill-rule:evenodd;stroke:#0000ff;stroke-width:0.926042;stroke-linecap:round;stroke-linejoin:round;stroke-opacity:1;paint-order:stroke fill markers"
       id="path917-9-1-2-7-0-3"
       cx="152.68846"
       cy="105.82753"
       rx="0.84549415"
       ry="0.83000648"
       inkscape:transform-center-x="17.738564"
       inkscape:transform-center-y="1.2627603" />
    <ellipse
       style="opacity:0.99;fill:#0000ff;fill-rule:evenodd;stroke:#0000ff;stroke-width:0.926042;stroke-linecap:round;stroke-linejoin:round;stroke-opacity:1;paint-order:stroke fill markers"
       id="path917-9-1-2-7-0-9-7"
       cx="160.26973"
       cy="101.61792"
       rx="0.84549415"
       ry="0.83000648"
       inkscape:transform-center-x="17.738564"
       inkscape:transform-center-y="1.2627603" />
    <circle
       id="path887-2"
       style="fill:#ff0000;stroke:#ff0000;stroke-width:0.264583"
       cx="205.00609"
       cy="131.57967"
       r="0.0051151733" />
    <path
       style="opacity:0.99;fill:#f01e20;fill-rule:evenodd;stroke:#f01e20;stroke-width:0.926042;stroke-linecap:round;stroke-linejoin:round;paint-order:stroke fill markers;fill-opacity:1"
       id="path14-3-5-8"
       d="m 181.28466,135.63337 c 0.14129,-0.47668 0.2274,-0.96531 0.31546,-1.45367 0.0726,-0.38295 0.14361,-0.76464 0.18055,-1.15294 0.0273,-0.33596 0.0293,-0.67321 0.0309,-1.01006 5.3e-4,-0.41629 -5.3e-4,-0.83258 -8e-4,-1.24888 -5.3e-4,-0.49229 -5.3e-4,-0.98458 -5.3e-4,-1.47688 -3e-5,-0.38123 -2e-5,-0.76247 -2e-5,-1.1437 0.0204,-0.47683 0.10183,-0.94876 0.1908,-1.41687 0.11998,-0.56165 0.24016,-1.12343 0.38262,-1.67989 0.15361,-0.52196 0.28499,-1.04911 0.37175,-1.58633 0.0977,-0.55695 0.13778,-1.12085 0.16152,-1.68504 0.0152,-0.44176 0.0162,-0.88383 0.0163,-1.32581 -2.7e-4,-0.30382 -0.001,-0.60765 -0.002,-0.91147 -0.0123,-0.2734 0.0104,-0.54431 0.0356,-0.8161 0.0322,-0.3807 0.0367,-0.763 0.0415,-1.14481 0.003,-0.35637 0.003,-0.71276 0.003,-1.06914 0.0229,-0.33127 0.0514,-0.66181 0.0651,-0.99368 10e-4,-0.39828 0.0212,-0.79489 0.0509,-1.19191 0.0238,-0.31649 0.0269,-0.63336 0.0636,-0.9487 0.0272,-0.2068 0.0371,-0.41466 0.0769,-0.61952 0.0178,-0.0837 0.0296,-0.16827 0.0408,-0.25299 0.0152,-0.11629 -0.14922,-0.13786 -0.16447,-0.0216 v 0 c -0.0106,0.0814 -0.022,0.16268 -0.0392,0.24303 -0.0404,0.20902 -0.0516,0.42086 -0.0788,0.6319 -0.0369,0.31761 -0.0407,0.63668 -0.0642,0.95547 -0.0298,0.39886 -0.0498,0.79735 -0.0512,1.19747 -0.0137,0.33416 -0.0431,0.66693 -0.0652,1.00054 1e-4,0.35567 2.6e-4,0.71135 -0.003,1.06701 -0.005,0.37738 -0.009,0.75526 -0.0408,1.13156 -0.0257,0.27694 -0.0485,0.5531 -0.0363,0.83164 2.6e-4,0.30375 10e-4,0.60749 0.002,0.91124 -6e-5,0.43966 -0.001,0.87941 -0.0161,1.31887 -0.0234,0.55768 -0.0629,1.11508 -0.15955,1.6656 -0.0857,0.53233 -0.21677,1.05439 -0.36868,1.5716 -0.14328,0.55983 -0.26431,1.12499 -0.3849,1.69006 -0.0908,0.4783 -0.17384,0.96055 -0.1937,1.44783 -1e-5,0.38124 -2e-5,0.76248 2e-5,1.14372 5e-5,0.49234 1.2e-4,0.98468 5.3e-4,1.47702 2.6e-4,0.41599 0.001,0.83198 7.9e-4,1.24797 -0.002,0.33188 -0.003,0.66415 -0.0301,0.99514 -0.0363,0.38371 -0.10709,0.76073 -0.17865,1.13918 -0.0871,0.48289 -0.17191,0.9661 -0.31169,1.43746 -0.0323,0.11277 0.1272,0.15841 0.15947,0.0456 z" />
    <path
       style="opacity:0.99;fill:#0000ff;fill-rule:evenodd;stroke:#0000ff;stroke-width:0.926042;stroke-linecap:round;stroke-linejoin:round;stroke-opacity:1;paint-order:stroke fill markers"
       id="path16-6-3-9"
       d="m 183.27982,103.28831 c 0.12756,-0.48095 0.234,-0.96718 0.37006,-1.44588 0.0917,-0.37023 0.22102,-0.72908 0.35156,-1.08694 0.15128,-0.40308 0.27842,-0.811687 0.36042,-1.234447 0.0653,-0.377177 0.08,-0.760194 0.0919,-1.142001 0.005,-0.47916 -0.0422,-0.956667 -0.065,-1.434924 -0.005,-0.716334 -0.0662,-1.429291 -0.12862,-2.142278 -0.0709,-0.704344 -0.19481,-1.402051 -0.32003,-2.098358 -0.12842,-0.617997 -0.21941,-1.243191 -0.28471,-1.870818 -0.051,-0.583867 -0.10308,-1.167574 -0.16075,-1.750831 -0.0415,-0.423707 -0.08,-0.849094 -0.0662,-1.275121 0.0134,-0.2822 0.0407,-0.564737 0.0786,-0.844777 0.0342,-0.236477 0.0574,-0.473727 0.0745,-0.712097 0.0141,-0.307247 0.0174,-0.614454 0.0399,-0.921284 0.0332,-0.393427 0.0559,-0.787574 0.0835,-1.181414 0.0277,-0.362097 0.0479,-0.724144 0.0208,-1.086691 -0.0123,-0.1746 -0.0514,-0.34096 -0.11722,-0.50233 -0.0449,-0.108397 -0.19816,-0.0448 -0.15324,0.0635 v 0 c 0.061,0.14433 0.0929,0.29468 0.10503,0.451287 0.027,0.35448 0.006,0.708527 -0.0209,1.062614 -0.0276,0.39366 -0.0503,0.787647 -0.0835,1.180914 -0.0224,0.30692 -0.0262,0.614227 -0.0399,0.921577 -0.0167,0.234917 -0.0396,0.468697 -0.0734,0.701764 -0.0383,0.28572 -0.0667,0.573787 -0.08,0.861687 -0.0133,0.433247 0.024,0.865794 0.067,1.296671 0.0577,0.583537 0.10978,1.167534 0.16084,1.751701 0.0658,0.631677 0.15717,1.260961 0.28642,1.882998 0.12433,0.691377 0.24752,1.384124 0.31805,2.083448 0.0622,0.710837 0.12311,1.421584 0.12818,2.135748 0.0227,0.473897 0.0693,0.947024 0.0649,1.421794 -0.0117,0.372977 -0.0256,0.747164 -0.089,1.115671 -0.08,0.41426 -0.20548,0.814167 -0.35341,1.209137 -0.13187,0.36169 -0.26255,0.72431 -0.35529,1.09846 -0.13579,0.47825 -0.24265,0.96385 -0.36963,1.44441 -0.033,0.11256 0.12608,0.15927 0.15914,0.0468 z" />
    <path
       style="opacity:0.99;fill:#ff0000;fill-rule:evenodd;stroke:#ff0000;stroke-width:0.926042;stroke-linecap:round;stroke-linejoin:round;stroke-opacity:1;paint-order:stroke fill markers"
       id="path885-5-7"
       d="m 183.27849,111.42603 c -0.0519,-0.44164 -0.069,-0.88519 -0.15085,-1.32269 -0.0607,-0.2753 -0.0918,-0.55487 -0.10718,-0.83593 -0.0105,-0.25122 -0.009,-0.50272 -0.009,-0.75409 5.3e-4,-0.25622 7.9e-4,-0.51243 0.001,-0.76865 2e-4,-0.27739 2e-4,-0.55479 2.1e-4,-0.83217 10e-6,-0.29966 0,-0.59929 0,-0.89894 0,-0.31303 0,-0.62605 0,-0.93907 0,-0.29119 0,-0.58237 0,-0.87355 0,-0.0825 0,-0.16504 0,-0.24756 0,-0.11729 -0.16588,-0.11729 -0.16588,0 v 0 c 0,0.009 0,0.24402 0,0.24756 0,0.29118 0,0.58236 0,0.87355 0,0.31302 0,0.62604 0,0.93907 1e-5,0.29964 1e-5,0.59928 1e-5,0.89892 -1e-5,0.27735 -2e-5,0.5547 -2.2e-4,0.83205 -2.3e-4,0.25623 -5.3e-4,0.51246 -10e-4,0.76869 -1.3e-4,0.25443 -0.001,0.50899 0.01,0.76326 0.0159,0.28825 0.0477,0.57502 0.10978,0.85739 0.0814,0.43381 0.0969,0.87392 0.14918,1.31182 0.0139,0.11646 0.1786,0.0968 0.1647,-0.0197 z" />
    <ellipse
       style="opacity:0.99;fill:#ff0000;fill-rule:evenodd;stroke:#ff0000;stroke-width:0.926042;stroke-linecap:round;stroke-linejoin:round;stroke-opacity:1;paint-order:stroke fill markers"
       id="path917-6-3"
       cx="183.01344"
       cy="103.58395"
       rx="0.84549415"
       ry="0.83000648" />
    <ellipse
       style="opacity:0.99;fill:#ff0000;fill-rule:evenodd;stroke:#ff0000;stroke-width:0.926042;stroke-linecap:round;stroke-linejoin:round;stroke-opacity:1;paint-order:stroke fill markers"
       id="path917-2-6"
       cx="183.18608"
       cy="111.73684"
       rx="0.84549415"
       ry="0.83000648" />
    <ellipse
       style="opacity:0.99;fill:#ff0000;fill-rule:evenodd;stroke:#ff0000;stroke-width:0.926042;stroke-linecap:round;stroke-linejoin:round;stroke-opacity:1;paint-order:stroke fill markers"
       id="path917-9-1-2-12"
       cx="182.80934"
       cy="107.543"
       rx="0.84549415"
       ry="0.83000648"
       inkscape:transform-center-x="17.738564"
       inkscape:transform-center-y="1.2627603" />
    <ellipse
       style="opacity:0.99;fill:#0000ff;fill-rule:evenodd;stroke:#0000ff;stroke-width:0.926042;stroke-linecap:round;stroke-linejoin:round;stroke-opacity:1;paint-order:stroke fill markers"
       id="path917-9-1-2-7-3-6-9"
       cx="184.49965"
       cy="97.763916"
       rx="0.84549415"
       ry="0.83000648"
       inkscape:transform-center-x="17.738564"
       inkscape:transform-center-y="1.2627603" />
    <ellipse
       style="opacity:0.99;fill:#0000ff;fill-rule:evenodd;stroke:#0000ff;stroke-width:0.926042;stroke-linecap:round;stroke-linejoin:round;stroke-opacity:1;paint-order:stroke fill markers"
       id="path917-9-1-2-7-0-6-2-3"
       cx="183.59799"
       cy="91.403801"
       rx="0.84549415"
       ry="0.83000648"
       inkscape:transform-center-x="17.738564"
       inkscape:transform-center-y="1.2627603" />
    <ellipse
       style="opacity:0.99;fill:#0000ff;fill-rule:evenodd;stroke:#0000ff;stroke-width:0.926042;stroke-linecap:round;stroke-linejoin:round;stroke-opacity:1;paint-order:stroke fill markers"
       id="path917-9-1-2-7-0-9-0-6-1"
       cx="183.56941"
       cy="82.937126"
       rx="0.84549415"
       ry="0.83000648"
       inkscape:transform-center-x="17.738564"
       inkscape:transform-center-y="1.2627603" />
    <text
       xml:space="preserve"
       style="font-style:normal;font-weight:normal;font-size:4.9389px;line-height:1.25;font-family:sans-serif;letter-spacing:0px;word-spacing:0px;fill:#000000;fill-opacity:1;stroke:none;stroke-width:0.264583"
       x="179.28181"
       y="145.39328"
       id="text1351"><tspan
         sodipodi:role="line"
         id="tspan1349"
         x="179.28181"
         y="145.39328"
         style="stroke-width:0.264583">e</tspan></text>
  </g>
</svg>
